<svg xmlns="http://www.w3.org/2000/svg" viewBox="0 0 800 500" role="img" aria-labelledby="t d"><title id="t">Education pathway for every child</title><desc id="d">A child walks toward a future of higher education with a mentor, books and a graduation symbol.</desc>
<rect width="800" height="500" rx="32" fill="#FFF8EC"/><circle cx="120" cy="100" r="85" fill="#DDEFD7"/><circle cx="680" cy="100" r="90" fill="#FFE1C5"/><path d="M80 430Q300 300 720 430" fill="none" stroke="#E4C69C" stroke-width="45"/>
<circle cx="330" cy="215" r="52" fill="#A86A48"/><path d="M280 210q6-67 100-49 23 16 2 60-41-25-90-7z" fill="#26282A"/><path d="M280 267q52-35 105 0l35 115H245z" fill="#61A8D7"/><circle cx="313" cy="218" r="5"/><circle cx="348" cy="218" r="5"/><path d="M320 240q13 10 26 0" fill="none" stroke="#6E392B" stroke-width="5"/>
<circle cx="535" cy="250" r="44" fill="#8F593F"/><path d="M494 246q5-55 82-39 17 14 0 48-30-19-67-5z" fill="#24272A"/><path d="M495 293q42-27 82 0l30 92H465z" fill="#2F8F4E"/>
<rect x="170" y="350" width="125" height="72" rx="10" fill="#F8B84E"/><path d="M190 373h85M190 394h62" stroke="#FFF" stroke-width="8"/>
<path d="M610 140l48 20-48 20-48-20z" fill="#F36C21"/><path d="M575 163v55q35 25 70 0v-55" fill="#F36C21"/><path d="M600 230h22" stroke="#2F8F4E" stroke-width="9"/></svg>