<svg xmlns="http://www.w3.org/2000/svg" viewBox="0 0 800 500" role="img" aria-labelledby="t d"><title id="t">A safe place for every woman</title><desc id="d">A welcoming future rural women-centered care space with a mother and child meeting a professional.</desc>
<rect width="800" height="500" rx="32" fill="#EEF7EA"/><circle cx="110" cy="90" r="95" fill="#D5EACD"/><rect x="90" y="230" width="620" height="175" rx="22" fill="#FFF" stroke="#C7D9C1" stroke-width="8"/><path d="M65 235h670l-75-90H140z" fill="#F36C21"/><rect x="145" y="275" width="150" height="130" rx="12" fill="#E7F0E2"/><rect x="330" y="275" width="150" height="130" rx="12" fill="#E7F0E2"/><rect x="515" y="275" width="150" height="130" rx="12" fill="#E7F0E2"/>
<circle cx="230" cy="205" r="42" fill="#A96B49"/><path d="M190 200q5-54 78-38 17 15 0 48-30-18-65-6z" fill="#282A2D"/><path d="M195 245q35-25 70 0l25 55H170z" fill="#2F8F4E"/>
<circle cx="315" cy="260" r="26" fill="#9C6042"/><path d="M292 257q4-34 50-24 10 10 0 30-18-11-42-4z" fill="#25272A"/><path d="M296 286q20-14 40 0l18 36H278z" fill="#F8B84E"/>
<circle cx="560" cy="205" r="42" fill="#8F593F"/><path d="M520 200q5-54 78-38 17 15 0 48-30-18-65-6z" fill="#2A2A2A"/><path d="M520 245q38-25 76 0l25 55H495z" fill="#FFF"/><circle cx="542" cy="205" r="4"/><circle cx="574" cy="205" r="4"/><path d="M548 222q11 9 22 0" fill="none" stroke="#6E392B" stroke-width="4"/></svg>